<svg xmlns="http://www.w3.org/2000/svg" viewBox="0 0 1045.92 1079.47"><defs><style>.a{fill:#fefefe;}.b{fill:#53bfdc;}.c{fill:#fffdff;}.d{fill:#84d4e8;}</style></defs><path class="a" d="M1437.74,1079.74H391.82V.26H1437.74Z" transform="translate(-391.82 -0.26)"/><path class="b" d="M1361.15,544.4v65.94c0,1.53,0,3.07-.06,4.6s-.74,2.22-2.19,2.16c-7.31-.32-14.61-.84-21.87-1.86-3.53-.5-7.07-1-10.62-1.3-11-.94-22-2.71-33.07-2.59-6.54.08-16.72,2.3-21.66,5.14-7.15,4.12-13.39,9.22-18,16.3a90.94,90.94,0,0,0-8.13,15.86c-5.41,13.6-10.81,27.21-16.39,40.74a145.73,145.73,0,0,0-8.94,29.22,30.45,30.45,0,0,0,0,11.18c.68,3.68,1.72,7.28,2.53,10.94a23.37,23.37,0,0,0,3.44,7.34c3.84,6.15,8.93,11.11,14.46,15.69,6.55,5.44,13,11,19.54,16.43q12.39,10.23,24.95,20.3a31.85,31.85,0,0,1,4.21,4.41c1.22,1.43,1.21,2.61.06,4.19a23.72,23.72,0,0,1-2.74,3c-4.91,4.72-9.89,9.36-14.75,14.12-3.9,3.81-7.66,7.75-11.5,11.62s-7.67,7.7-11.54,11.52c-3,3-6.11,5.91-9.13,8.9q-11.07,11-22.1,22-11.73,11.76-23.37,23.59c-4.29,4.37-8.41,8.91-12.74,13.24s-5.49,4.24-9.44-.36c-3.1-3.61-6-7.44-8.7-11.33q-8.51-12.14-17.78-23.68c-3.4-4.24-6.66-8.59-10.22-12.73-4.38-5.1-9.29-9.71-15.25-12.64-8.13-4-16.89-6.64-26.12-5.5a66.4,66.4,0,0,0-17.68,4.83c-6.58,2.79-13.08,5.77-19.7,8.47-13.71,5.58-27.53,10.9-41.66,15.35a42.53,42.53,0,0,0-16.35,9.16c-6.49,6-11.35,12.84-13.55,21.7-2.43,9.77-2.17,19.57-1.93,29.43.06,2.55.41,5.09.46,7.64.18,9.71.24,19.42.44,29.13.1,5.1.46,10.2.54,15.3.07,4.45-.55,4.82-5.07,4.62a171.77,171.77,0,0,0-22.46.13c-2.2.2-4.43.13-6.64.14l-102.76.07c-5.93,0-6.12-.08-5.86-6,.78-17.36.88-34.73,1-52.1a68.22,68.22,0,0,1,.54-7.12c.59-5.06,1.08-10.17-.68-15.16a15.24,15.24,0,0,1-.33-1.49c-3.29-13.73-2.32-9.17-9.43-20a7.38,7.38,0,0,0-1.68-1.92c-5.52-4.23-10.62-9.07-17.4-11.43-5-1.74-9.88-3.7-14.79-5.63-11.73-4.58-23.29-9.55-34.8-14.67-10.42-4.62-21-9-32.34-10.85a17.36,17.36,0,0,0-7.07,0c-2.8.69-5.66,1.18-8.47,1.87-10.55,2.61-18.73,8.89-25.31,17.18-6.77,8.53-13,17.49-19.36,26.33-5.36,7.43-10.42,15.15-16.94,21.71-4,4.06-5.32,3.95-9.8.28-3.19-2.62-5.71-5.83-8.61-8.7-7-6.94-14.12-13.82-21.06-20.84-12-12.1-23.8-24.35-35.8-36.42-10.21-10.27-20.59-20.36-30.89-30.54q-4.9-4.85-9.79-9.72a22.11,22.11,0,0,1-2-2.29c-1.35-1.73-1.39-3,0-4.55a51.32,51.32,0,0,1,5.06-5.05q12.57-10.42,25.27-20.71,10.7-8.7,21.49-17.28c6-4.74,10.23-10.89,14.3-17.2a13.72,13.72,0,0,0,1.45-3.8c.64-2.29,1-4.66,1.71-6.93,1.74-5.56,1.11-11,.11-16.64-1.8-10-6-19.12-9.69-28.44-5-12.48-9.8-25-14.57-37.6-3.1-8.16-6.82-15.95-12.14-22.93-2.39-3.14-4.85-6.12-8.33-8.16-1.75-1-3.34-2.35-5-3.53a17.1,17.1,0,0,0-7-3,74,74,0,0,1-7.94-1.9,25.85,25.85,0,0,0-11.15-.64c-9.61,1.32-19.25,2.28-28.93,3-6.94.52-13.83,1.73-20.76,2.45-4.4.45-8.84.58-13.26.83a2.24,2.24,0,0,1-2.28-1.65,10.21,10.21,0,0,1-.47-5.54,83.77,83.77,0,0,0,.46-11.74q0-43.44,0-86.89c0-5.45-.19-10.89-.38-16.34-.26-7.13.21-14.29.46-21.43.09-2.65.71-3.14,3.5-3.22a149.33,149.33,0,0,1,23.43,1.54c1.18.15,2.36.34,3.55.42,7,.47,13.92.84,20.88,1.39,4.91.39,9.81,1,14.71,1.54a18.87,18.87,0,0,0,7.1-.31c5.07-1.38,10.42-1.83,15.15-4.35,6.5-3.48,12.37-7.67,16.66-13.92a81.43,81.43,0,0,0,10.2-19.93c4.28-12.56,9.63-24.72,14.49-37.07,2.61-6.65,5.38-13.25,7.78-20,2.16-6.09,3.21-12.51,4.59-18.82a7.23,7.23,0,0,0-.13-3c-1-4.48-2-9-3.13-13.41a13.91,13.91,0,0,0-1.56-3.76c-4-6.76-8.69-12.9-15.1-17.76-15.05-11.41-29.87-23.14-44.73-34.8a56.36,56.36,0,0,1-5.59-5.23c-1.79-1.87-1.76-2.7,0-4.84a41.62,41.62,0,0,1,3-3.44c6-6,12.08-12,18.1-18,5.17-5.18,10.29-10.41,15.47-15.58,7.49-7.45,15-14.84,22.5-22.31q12.46-12.47,24.81-25c6.54-6.69,13-13.5,19.45-20.23,1.3-1.35,2.76-2.54,4-3.92a6,6,0,0,1,4.57-1.82,6.12,6.12,0,0,1,4.94,2.08c4.08,4.15,7.44,8.86,10.92,13.48,8.8,11.7,17.38,23.57,26.31,35.17a46.31,46.31,0,0,0,25.61,16.7c11.3,3,14.58,2.87,26.06-.38a117.09,117.09,0,0,0,23.11-9.47,52.08,52.08,0,0,1,6-2.93c9.71-3.68,18.92-8.55,28.83-11.77,4.68-1.52,9.16-3.67,13.7-5.6a46.14,46.14,0,0,0,15.14-10.27c5.3-5.46,9.76-11.6,11.48-19.5a117.72,117.72,0,0,0,2.29-17.67c.15-2.35-.36-4.74-.42-7.12-.13-5.45-.13-10.9-.25-16.35-.29-12.43-.65-24.85-.93-37.28-.14-6.64-.19-6.36,6.29-6.71,25.54-1.41,51.1-.41,76.65-.69,5.45-.06,10.91.17,16.36,0,13.13-.39,26.21,1,39.33.85,3,0,4.15,1,4.22,3.85.12,4.6,0,9.2-.15,13.79-.06,2.38-.35,4.76-.39,7.13-.16,7.67-.18,15.34-.38,23-.14,4.93-.47,9.86-.78,14.78A72.38,72.38,0,0,0,985.35,176c1.23,4.65,2.55,9.19,6.09,12.69,5.53,9,14.24,13.95,23.52,18,7.32,3.21,14.83,6,22.19,9.13,11,4.65,21.86,9.45,32.8,14.13a88.94,88.94,0,0,0,17.36,5.94,42.75,42.75,0,0,0,17.16-.08,55.09,55.09,0,0,0,24.87-12.34,71,71,0,0,0,11.44-12.28c5.27-7.13,11.27-13.66,16.44-20.85,3.57-5,7.3-9.85,11-14.74,1.53-2,3.08-4.07,4.77-6,2.21-2.51,5.18-2.78,7.63-.51,4.49,4.17,8.84,8.49,13.19,12.82q12.33,12.24,24.56,24.56c12.38,12.43,24.7,24.92,37.11,37.33,4.33,4.33,9,8.33,13.2,12.79,3.85,4.09,8.42,7.42,12,11.82,1.81,2.22,4.26,3.9,6.34,5.92,4.31,4.2,4.34,6-.23,10-5.51,4.81-11.21,9.4-16.8,14.12-4.3,3.61-8.51,7.32-12.83,10.91-6.69,5.54-13.52,10.9-20.12,16.54-7.14,6.09-12.5,13.35-14.49,22.82-2.86,13.59-2.84,9.16-.14,22.51,1.64,8.09,4.77,15.62,8.15,23,4,8.69,7.25,17.63,10.59,26.56,3,8,5.79,16,9.09,23.84a49.21,49.21,0,0,0,26.17,26.7c3.82,1.7,8.18,2.2,12.31,3.19a32.42,32.42,0,0,0,12.15.41c5.72-.79,11.53-1,17.28-1.52,8.3-.79,16.6-1.62,24.88-2.55a120,120,0,0,1,14.8-.62c2.21,0,3.09.89,3.25,3.08.15,2,.11,4.08.11,6.13q0,32.44,0,64.91Z" transform="translate(-391.82 -0.26)"/><path class="c" d="M860.21,740.46c1.73-4.1,2.21-8.52,3.29-12.79q5.18-20.53,10.19-41.1c3.06-12.56,5.74-25.21,9.09-37.69,4.11-15.28,7.47-30.74,11.33-46.07.53-2.14,1.41-4.35,1.24-6.46s-2.5-3.52-3.91-5.19c-7.26-8.57-14.59-17.09-21.87-25.64q-4-4.66-7.86-9.41a1,1,0,0,1,.78-1.81c1.19-.07,2.38-.07,3.58-.07h98.67c1.31,0,2.62.1,4.4.18a14.27,14.27,0,0,1-3.26,4.88c-4.55,4.84-8.71,10-13,15.1-5.25,6.27-10.53,12.51-16,18.55a6.54,6.54,0,0,0-1.6,6.9c2.75,10.53,5.29,21.12,7.89,31.68q6.78,27.5,13.54,55,6.33,25.76,12.67,51.52a7.09,7.09,0,0,0,.34,1.48,2,2,0,0,0,.93,1.05c.68.21.7-.49.8-.92.87-3.82,1.69-7.64,2.57-11.45,1.9-8.29,3.86-16.56,5.73-24.85,3.39-15.1,6.71-30.21,10.11-45.31q6.61-29.35,13.31-58.7,4.62-20.4,9.26-40.78c1-4.29,1.26-4.41,5.46-3.91,12.89,1.53,25.55,4.16,37.66,8.86a146.73,146.73,0,0,1,21.65,10.28,158.43,158.43,0,0,1,20.06,14A140.83,140.83,0,0,1,1109.17,599a161.34,161.34,0,0,1,15.2,18.53c1.79,2.5,3.4,5.09,5,7.71A142.69,142.69,0,0,1,1148,674.1a132.15,132.15,0,0,1,2.5,23.32c0,15.33.21,30.67,0,46-.25,16.37-6.6,29.94-19.24,40.63A53.9,53.9,0,0,1,1109.57,795a51.25,51.25,0,0,1-13.14,1.55q-39.89-.07-79.76,0-138,0-276.07,0a61.73,61.73,0,0,1-29.47-7,55.49,55.49,0,0,1-22-20.77,61.18,61.18,0,0,1-9-33c.16-10.56.08-21.13,0-31.69a142.31,142.31,0,0,1,1.84-24.4,160.29,160.29,0,0,1,10.32-36.24,146.73,146.73,0,0,1,52.86-64.17c16-10.66,33.35-18.3,52.38-22,5.52-1.07,11.05-1.91,16.61-2.67,2.17-.3,2.67,0,3.2,2.26,1.34,5.62,2.57,11.27,3.83,16.91,2.68,11.95,5.32,23.91,8,35.85q6.63,29.35,13.31,58.7T855.79,727c1,4.47,2.2,8.91,3.31,13.36.39.32.38.8.51,1.23A1.12,1.12,0,0,1,860.21,740.46Z" transform="translate(-391.82 -0.26)"/><path class="c" d="M916.16,521.7a119.71,119.71,0,0,1-39.4-5.42,135.8,135.8,0,0,1-27.11-11.75,129.09,129.09,0,0,1-19.28-13.36,137.21,137.21,0,0,1-28.46-32.48c-4.2-6.4-7.33-13.41-10.41-20.44-4.33-9.89-6.87-20.26-8.71-30.84a88.31,88.31,0,0,1-1.26-10.63c-.52-10.21-.53-20.44,1-30.57a139.91,139.91,0,0,1,10.36-35.64,137.48,137.48,0,0,1,17.87-29.65,123.41,123.41,0,0,1,18.42-19.06,141.91,141.91,0,0,1,21.39-14.79,127.58,127.58,0,0,1,39.12-14.33c9.55-1.73,19.15-3.35,28.88-2.81,18.3,1,36,4.53,52.79,12.41a135.5,135.5,0,0,1,43.29,31.87,155.7,155.7,0,0,1,14.2,18.65c6.07,9.17,10.34,19.12,14,29.4a131.34,131.34,0,0,1,6.6,30.82,122,122,0,0,1,.53,20.39c-.88,14-3.44,27.65-8.7,40.73a157.8,157.8,0,0,1-6.49,15,136.17,136.17,0,0,1-25,33.95,138.74,138.74,0,0,1-27.52,21,131.28,131.28,0,0,1-44.88,16.11A93.82,93.82,0,0,1,916.16,521.7Z" transform="translate(-391.82 -0.26)"/><path class="d" d="M860.21,740.46c-.16.43-.33,1.23-.48,1.22-.92,0-.61-.78-.63-1.33Z" transform="translate(-391.82 -0.26)"/></svg>